<svg width="95" height="35" viewBox="0 0 95 35" fill="none" xmlns="http://www.w3.org/2000/svg">
<rect width="95" height="35" fill="white"/>
<path d="M34.1059 17.4844C34.1469 26.9078 26.681 34.9359 17.0683 34.9486C7.69017 34.9599 -0.00730207 27.2155 5.19834e-06 17.4665C0.00731246 7.59024 7.85824 -0.0201704 17.0844 4.016e-05C26.5305 0.0202507 34.152 7.91959 34.1059 17.4844ZM17.7267 10.5851C17.6967 13.4041 20.0036 15.6887 22.7073 15.6879C25.2919 15.6879 27.6836 13.5501 27.6894 10.5777C27.6953 7.57751 25.3029 5.45465 22.7322 5.44941C20.0752 5.44417 17.6953 7.71225 17.7267 10.5851Z" fill="#DB353A"/>
<path d="M17.7267 10.5852C17.6953 7.71229 20.0753 5.44421 22.7322 5.44945C25.3029 5.45469 27.6953 7.57755 27.6894 10.5777C27.6836 13.5502 25.2919 15.688 22.7073 15.688C20.0037 15.688 17.6968 13.4042 17.7267 10.5852Z" fill="#F2F2F2"/>
<path d="M35.8457 25.6602L35.8809 26.457C36.3652 25.8477 36.998 25.543 37.7793 25.543C39.1191 25.543 39.7949 26.2988 39.8066 27.8105V32H38.7227V27.8047C38.7188 27.3477 38.6133 27.0098 38.4062 26.791C38.2031 26.5723 37.8848 26.4629 37.4512 26.4629C37.0996 26.4629 36.791 26.5566 36.5254 26.7441C36.2598 26.9316 36.0527 27.1777 35.9043 27.4824V32H34.8203V25.6602H35.8457ZM44.0723 32.1172C43.2129 32.1172 42.5137 31.8359 41.9746 31.2734C41.4355 30.707 41.166 29.9512 41.166 29.0059V28.8066C41.166 28.1777 41.2852 27.6172 41.5234 27.125C41.7656 26.6289 42.1016 26.2422 42.5312 25.9648C42.9648 25.6836 43.4336 25.543 43.9375 25.543C44.7617 25.543 45.4023 25.8145 45.8594 26.3574C46.3164 26.9004 46.5449 27.6777 46.5449 28.6895V29.1406H42.25C42.2656 29.7656 42.4473 30.2715 42.7949 30.6582C43.1465 31.041 43.5918 31.2324 44.1309 31.2324C44.5137 31.2324 44.8379 31.1543 45.1035 30.998C45.3691 30.8418 45.6016 30.6348 45.8008 30.377L46.4629 30.8926C45.9316 31.709 45.1348 32.1172 44.0723 32.1172ZM43.9375 26.4336C43.5 26.4336 43.1328 26.5938 42.8359 26.9141C42.5391 27.2305 42.3555 27.6758 42.2852 28.25H45.4609V28.168C45.4297 27.6172 45.2812 27.1914 45.0156 26.8906C44.75 26.5859 44.3906 26.4336 43.9375 26.4336ZM57.5078 32H56.377L52.082 25.4258V32H50.9512V23.4688H52.082L56.3887 30.0723V23.4688H57.5078V32ZM61.9668 32.1172C61.1074 32.1172 60.4082 31.8359 59.8691 31.2734C59.3301 30.707 59.0605 29.9512 59.0605 29.0059V28.8066C59.0605 28.1777 59.1797 27.6172 59.418 27.125C59.6602 26.6289 59.9961 26.2422 60.4258 25.9648C60.8594 25.6836 61.3281 25.543 61.832 25.543C62.6562 25.543 63.2969 25.8145 63.7539 26.3574C64.2109 26.9004 64.4395 27.6777 64.4395 28.6895V29.1406H60.1445C60.1602 29.7656 60.3418 30.2715 60.6895 30.6582C61.041 31.041 61.4863 31.2324 62.0254 31.2324C62.4082 31.2324 62.7324 31.1543 62.998 30.998C63.2637 30.8418 63.4961 30.6348 63.6953 30.377L64.3574 30.8926C63.8262 31.709 63.0293 32.1172 61.9668 32.1172ZM61.832 26.4336C61.3945 26.4336 61.0273 26.5938 60.7305 26.9141C60.4336 27.2305 60.25 27.6758 60.1797 28.25H63.3555V28.168C63.3242 27.6172 63.1758 27.1914 62.9102 26.8906C62.6445 26.5859 62.2852 26.4336 61.832 26.4336ZM67.1699 24.125V25.6602H68.3535V26.498H67.1699V30.4297C67.1699 30.6836 67.2227 30.875 67.3281 31.0039C67.4336 31.1289 67.6133 31.1914 67.8672 31.1914C67.9922 31.1914 68.1641 31.168 68.3828 31.1211V32C68.0977 32.0781 67.8203 32.1172 67.5508 32.1172C67.0664 32.1172 66.7012 31.9707 66.4551 31.6777C66.209 31.3848 66.0859 30.9688 66.0859 30.4297V26.498H64.9316V25.6602H66.0859V24.125H67.1699ZM75.2383 30.5059L76.457 25.6602H77.541L75.6953 32H74.8164L73.2754 27.1953L71.7754 32H70.8965L69.0566 25.6602H70.1348L71.3828 30.4062L72.8594 25.6602H73.7324L75.2383 30.5059ZM78.3613 28.7715C78.3613 28.1504 78.4824 27.5918 78.7246 27.0957C78.9707 26.5996 79.3105 26.2168 79.7441 25.9473C80.1816 25.6777 80.6797 25.543 81.2383 25.543C82.1016 25.543 82.7988 25.8418 83.3301 26.4395C83.8652 27.0371 84.1328 27.832 84.1328 28.8242V28.9004C84.1328 29.5176 84.0137 30.0723 83.7754 30.5645C83.541 31.0527 83.2031 31.4336 82.7617 31.707C82.3242 31.9805 81.8203 32.1172 81.25 32.1172C80.3906 32.1172 79.6934 31.8184 79.1582 31.2207C78.627 30.623 78.3613 29.832 78.3613 28.8477V28.7715ZM79.4512 28.9004C79.4512 29.6035 79.6133 30.168 79.9375 30.5938C80.2656 31.0195 80.7031 31.2324 81.25 31.2324C81.8008 31.2324 82.2383 31.0176 82.5625 30.5879C82.8867 30.1543 83.0488 29.5488 83.0488 28.7715C83.0488 28.0762 82.8828 27.5137 82.5508 27.084C82.2227 26.6504 81.7852 26.4336 81.2383 26.4336C80.7031 26.4336 80.2715 26.6465 79.9434 27.0723C79.6152 27.498 79.4512 28.1074 79.4512 28.9004ZM88.5566 26.6328C88.3926 26.6055 88.2148 26.5918 88.0234 26.5918C87.3125 26.5918 86.8301 26.8945 86.5762 27.5V32H85.4922V25.6602H86.5469L86.5645 26.3926C86.9199 25.8262 87.4238 25.543 88.0762 25.543C88.2871 25.543 88.4473 25.5703 88.5566 25.625V26.6328ZM91.3281 29.0645L90.6484 29.7734V32H89.5645V23H90.6484V28.4434L91.2285 27.7461L93.2031 25.6602H94.5215L92.0547 28.3086L94.8086 32H93.5371L91.3281 29.0645Z" fill="#DB353A"/>
</svg>
