<svg width="129" height="40" viewBox="0 0 129 40" fill="none" xmlns="http://www.w3.org/2000/svg">
<path d="M38.1059 20.0116C38.1516 30.797 29.8102 39.9854 19.0701 40C8.59208 40.0128 -0.00815846 31.1491 5.808e-06 19.991C0.00817008 8.68731 8.77986 -0.0230858 19.0881 4.59646e-05C29.642 0.0231777 38.1573 9.06427 38.1059 20.0116ZM19.8057 12.1151C19.7722 15.3415 22.3497 17.9563 25.3705 17.9554C28.2582 17.9554 30.9303 15.5086 30.9369 12.1065C30.9434 8.67274 28.2704 6.24305 25.3982 6.23705C22.4297 6.23106 19.7706 8.82695 19.8057 12.1151Z" fill="#DB353A"/>
<path d="M19.8057 12.1151C19.7706 8.827 22.4297 6.2311 25.3982 6.2371C28.2704 6.2431 30.9434 8.67279 30.9369 12.1066C30.9304 15.5087 28.2582 17.9555 25.3705 17.9555C22.3497 17.9555 19.7723 15.3416 19.8057 12.1151Z" fill="#F2F2F2"/>
<path d="M42.5117 26.2109C42.293 26.2109 42.0469 26.3086 41.7734 26.5039C41.5078 26.6992 41.2383 26.9531 40.9648 27.2656C40.6914 27.5703 40.4258 27.9141 40.168 28.2969C39.918 28.6797 39.6992 29.0586 39.5117 29.4336C39.4883 30.1211 39.4648 30.8711 39.4414 31.6836C39.4258 32.4961 39.418 33.3633 39.418 34.2852C39.418 34.4023 39.3633 34.5078 39.2539 34.6016C39.1523 34.6875 39.0312 34.7617 38.8906 34.8242C38.75 34.8789 38.6055 34.9219 38.457 34.9531C38.3086 34.9844 38.1875 35 38.0938 35C37.9766 35 37.8672 34.9648 37.7656 34.8945C37.6641 34.8242 37.6133 34.668 37.6133 34.4258C37.6133 34.3086 37.625 34.1641 37.6484 33.9922C37.6719 33.8125 37.7031 33.6211 37.7422 33.418C37.7734 33.2148 37.8125 33.0078 37.8594 32.7969C37.8984 32.5781 37.9375 32.375 37.9766 32.1875V26.457C37.9766 26.3008 37.9805 26.1797 37.9883 26.0938C37.9883 26 38 25.9297 38.0234 25.8828C38.0703 25.7734 38.1523 25.6875 38.2695 25.625C38.3867 25.5625 38.5117 25.5156 38.6445 25.4844C38.7773 25.4453 38.9062 25.4219 39.0312 25.4141C39.1562 25.4062 39.2539 25.4023 39.3242 25.4023C39.457 25.4023 39.5469 25.4375 39.5938 25.5078C39.6484 25.5781 39.6758 25.7031 39.6758 25.8828C39.6758 25.8594 39.6562 26.0508 39.6172 26.457C39.5859 26.8633 39.5586 27.4453 39.5352 28.2031C39.7695 27.8359 40.0234 27.4844 40.2969 27.1484C40.5703 26.8125 40.8555 26.5156 41.1523 26.2578C41.4492 26 41.7539 25.793 42.0664 25.6367C42.3867 25.4805 42.7109 25.4023 43.0391 25.4023C43.625 25.4023 44.0547 25.5898 44.3281 25.9648C44.6016 26.332 44.7383 26.832 44.7383 27.4648C44.7383 27.8633 44.7109 28.3086 44.6562 28.8008C44.6094 29.2852 44.5508 29.7812 44.4805 30.2891C44.418 30.7891 44.3594 31.2812 44.3047 31.7656C44.2578 32.2422 44.2344 32.6797 44.2344 33.0781C44.2344 33.5938 44.3945 33.8516 44.7148 33.8516C44.8164 33.8516 44.9336 33.8008 45.0664 33.6992C45.207 33.5898 45.3789 33.3906 45.582 33.1016C45.793 32.8125 46.043 32.418 46.332 31.918C46.6211 31.4102 46.9648 30.7578 47.3633 29.9609L47.4805 29.7148L47.9609 30.0781L47.8438 30.3242C47.375 31.2617 46.957 32.0312 46.5898 32.6328C46.2305 33.2344 45.9023 33.7109 45.6055 34.0625C45.3086 34.4141 45.0312 34.6602 44.7734 34.8008C44.5156 34.9336 44.2578 35 44 35C43.8359 35 43.6719 34.9766 43.5078 34.9297C43.3438 34.8828 43.1992 34.8008 43.0742 34.6836C42.9492 34.5664 42.8477 34.4102 42.7695 34.2148C42.6914 34.0117 42.6523 33.7539 42.6523 33.4414C42.6523 32.9727 42.6836 32.4453 42.7461 31.8594C42.8086 31.2734 42.8789 30.6875 42.957 30.1016C43.0352 29.5156 43.1055 28.9648 43.168 28.4492C43.2305 27.9258 43.2617 27.5 43.2617 27.1719C43.2617 26.8828 43.1992 26.6523 43.0742 26.4805C42.9492 26.3008 42.7617 26.2109 42.5117 26.2109ZM50.9492 33.6758C51.2227 33.6758 51.5 33.6055 51.7812 33.4648C52.0703 33.3242 52.3594 33.1055 52.6484 32.8086C52.9453 32.5117 53.25 32.1289 53.5625 31.6602C53.875 31.1836 54.1953 30.6172 54.5234 29.9609L54.6406 29.7148L55.1211 30.0781L55.0039 30.3242C54.582 31.1602 54.1602 31.875 53.7383 32.4688C53.3242 33.0625 52.9141 33.5469 52.5078 33.9219C52.1094 34.2969 51.7148 34.5703 51.3242 34.7422C50.9336 34.9141 50.5586 35 50.1992 35C49.6914 35 49.2383 34.8945 48.8398 34.6836C48.4414 34.4727 48.1055 34.1875 47.832 33.8281C47.5586 33.4609 47.3516 33.0391 47.2109 32.5625C47.0625 32.0781 46.9883 31.5703 46.9883 31.0391C46.9883 30.1953 47.1055 29.4297 47.3398 28.7422C47.5664 28.0469 47.8711 27.4531 48.2539 26.9609C48.6445 26.4688 49.0859 26.0859 49.5781 25.8125C50.0703 25.5391 50.582 25.4023 51.1133 25.4023C51.6523 25.4023 52.0625 25.5391 52.3438 25.8125C52.6328 26.0859 52.7773 26.4297 52.7773 26.8438C52.7773 27.2422 52.6641 27.6172 52.4375 27.9688C52.2109 28.3125 51.9023 28.6523 51.5117 28.9883C51.1289 29.3164 50.6836 29.6445 50.1758 29.9727C49.668 30.293 49.1328 30.625 48.5703 30.9688C48.625 31.375 48.7188 31.7461 48.8516 32.082C48.9844 32.4102 49.1523 32.6953 49.3555 32.9375C49.5586 33.1719 49.793 33.3555 50.0586 33.4883C50.3242 33.6133 50.6211 33.6758 50.9492 33.6758ZM51.3125 27.1953C51.3125 26.8828 51.2266 26.6367 51.0547 26.457C50.8906 26.2773 50.6875 26.1875 50.4453 26.1875C50.2422 26.1875 50.0273 26.2617 49.8008 26.4102C49.5742 26.5508 49.3672 26.7812 49.1797 27.1016C48.9922 27.4141 48.8359 27.8164 48.7109 28.3086C48.5859 28.8008 48.5234 29.3984 48.5234 30.1016V30.3711C48.7891 30.2305 49.082 30.0469 49.4023 29.8203C49.7305 29.5859 50.0352 29.3281 50.3164 29.0469C50.5977 28.7656 50.832 28.4688 51.0195 28.1562C51.2148 27.8359 51.3125 27.5156 51.3125 27.1953ZM62.0703 15.3242C62.4453 15.3242 62.8086 15.5039 63.1602 15.8633C63.5195 16.2148 63.8594 16.6953 64.1797 17.3047C64.5 17.9062 64.7969 18.6094 65.0703 19.4141C65.3438 20.2109 65.5938 21.0547 65.8203 21.9453C66.375 22.6641 66.9648 23.418 67.5898 24.207C68.2148 24.9961 68.8594 25.7969 69.5234 26.6094C70.1953 27.4219 70.875 28.2383 71.5625 29.0586C72.2578 29.8711 72.9492 30.668 73.6367 31.4492C73.1445 29.2852 72.7734 27.3398 72.5234 25.6133C72.2734 23.8867 72.1484 22.3672 72.1484 21.0547C72.1484 20.1094 72.2383 19.2812 72.418 18.5703C72.6055 17.8516 72.8555 17.2539 73.168 16.7773C73.4805 16.293 73.8477 15.9297 74.2695 15.6875C74.6914 15.4453 75.1445 15.3242 75.6289 15.3242C75.9883 15.3242 76.3008 15.3867 76.5664 15.5117C76.8398 15.6367 77.0664 15.8047 77.2461 16.0156C77.4336 16.2266 77.5703 16.4688 77.6562 16.7422C77.75 17.0156 77.7969 17.3008 77.7969 17.5977C77.7969 17.9961 77.7539 18.3672 77.668 18.7109C77.5898 19.0547 77.5039 19.3555 77.4102 19.6133C77.293 19.918 77.1641 20.1992 77.0234 20.457L76.5664 20.1641C76.5977 20.0938 76.6406 19.9922 76.6953 19.8594C76.7578 19.7188 76.8164 19.5508 76.8711 19.3555C76.9258 19.1523 76.9727 18.9258 77.0117 18.6758C77.0508 18.418 77.0703 18.1406 77.0703 17.8438C77.0703 17.3594 76.9609 16.9805 76.7422 16.707C76.5234 16.4258 76.2344 16.2852 75.875 16.2852C75.4062 16.2852 75.0078 16.4453 74.6797 16.7656C74.3594 17.0781 74.0977 17.5156 73.8945 18.0781C73.6992 18.6328 73.5547 19.2891 73.4609 20.0469C73.375 20.7969 73.332 21.6055 73.332 22.4727C73.332 23.2852 73.3672 24.1328 73.4375 25.0156C73.5078 25.8906 73.6016 26.7695 73.7188 27.6523C73.8438 28.5273 73.9844 29.3867 74.1406 30.2305C74.3047 31.0742 74.4805 31.8633 74.668 32.5977L76.3555 34.4023L74.9375 35.7383C74.4766 35.293 73.9141 34.7266 73.25 34.0391C72.5938 33.3516 71.8828 32.5742 71.1172 31.707C70.3516 30.8398 69.5508 29.9023 68.7148 28.8945C67.8867 27.8867 67.0703 26.8438 66.2656 25.7656C66.3438 26.2109 66.3945 26.6836 66.418 27.1836C66.4492 27.6758 66.4648 28.2188 66.4648 28.8125C66.4648 29.8984 66.3359 30.832 66.0781 31.6133C65.8203 32.3867 65.4844 33.0273 65.0703 33.5352C64.6641 34.0352 64.207 34.4062 63.6992 34.6484C63.1992 34.8828 62.7031 35 62.2109 35C61.8281 35 61.4609 34.9336 61.1094 34.8008C60.7656 34.668 60.4609 34.4727 60.1953 34.2148C59.9375 33.957 59.7305 33.6445 59.5742 33.2773C59.418 32.9023 59.3398 32.4766 59.3398 32C59.3398 31.2734 59.5156 30.5703 59.8672 29.8906C60.2188 29.2109 60.6641 28.5703 61.2031 27.9688L61.6602 28.2031C61.5039 28.4375 61.3555 28.6875 61.2148 28.9531C61.082 29.2188 60.9609 29.4922 60.8516 29.7734C60.75 30.0469 60.668 30.3281 60.6055 30.6172C60.543 30.9062 60.5117 31.1914 60.5117 31.4727C60.5117 31.832 60.5664 32.1602 60.6758 32.457C60.793 32.7461 60.9453 32.9961 61.1328 33.207C61.3203 33.4102 61.5391 33.5703 61.7891 33.6875C62.0469 33.7969 62.3164 33.8516 62.5977 33.8516C62.9648 33.8516 63.3359 33.7461 63.7109 33.5352C64.0938 33.3164 64.4375 32.9727 64.7422 32.5039C65.0547 32.0273 65.3086 31.4141 65.5039 30.6641C65.6992 29.9062 65.7969 28.9922 65.7969 27.9219C65.7969 27.3047 65.7578 26.707 65.6797 26.1289C65.6094 25.543 65.5039 24.9961 65.3633 24.4883C64.5117 23.2773 63.8086 22.2305 63.2539 21.3477C62.707 20.4648 62.2734 19.7109 61.9531 19.0859C61.6406 18.4531 61.4219 17.9336 61.2969 17.5273C61.1719 17.1211 61.1094 16.7852 61.1094 16.5195C61.1094 16.0977 61.207 15.793 61.4023 15.6055C61.6055 15.418 61.8281 15.3242 62.0703 15.3242ZM61.8359 16.1562C61.8359 16.2344 61.9023 16.3984 62.0352 16.6484C62.1758 16.8906 62.3711 17.2031 62.6211 17.5859C62.8789 17.9609 63.1875 18.3984 63.5469 18.8984C63.9062 19.3984 64.3086 19.9414 64.7539 20.5273C64.5586 19.9102 64.3438 19.3242 64.1094 18.7695C63.8828 18.207 63.6523 17.7148 63.418 17.293C63.1836 16.8711 62.9492 16.5391 62.7148 16.2969C62.4805 16.0469 62.2656 15.9219 62.0703 15.9219C61.9141 15.9219 61.8359 16 61.8359 16.1562ZM81.0195 33.6758C81.293 33.6758 81.5703 33.6055 81.8516 33.4648C82.1406 33.3242 82.4297 33.1055 82.7188 32.8086C83.0156 32.5117 83.3203 32.1289 83.6328 31.6602C83.9453 31.1836 84.2656 30.6172 84.5938 29.9609L84.7109 29.7148L85.1914 30.0781L85.0742 30.3242C84.6523 31.1602 84.2305 31.875 83.8086 32.4688C83.3945 33.0625 82.9844 33.5469 82.5781 33.9219C82.1797 34.2969 81.7852 34.5703 81.3945 34.7422C81.0039 34.9141 80.6289 35 80.2695 35C79.7617 35 79.3086 34.8945 78.9102 34.6836C78.5117 34.4727 78.1758 34.1875 77.9023 33.8281C77.6289 33.4609 77.4219 33.0391 77.2812 32.5625C77.1328 32.0781 77.0586 31.5703 77.0586 31.0391C77.0586 30.1953 77.1758 29.4297 77.4102 28.7422C77.6367 28.0469 77.9414 27.4531 78.3242 26.9609C78.7148 26.4688 79.1562 26.0859 79.6484 25.8125C80.1406 25.5391 80.6523 25.4023 81.1836 25.4023C81.7227 25.4023 82.1328 25.5391 82.4141 25.8125C82.7031 26.0859 82.8477 26.4297 82.8477 26.8438C82.8477 27.2422 82.7344 27.6172 82.5078 27.9688C82.2812 28.3125 81.9727 28.6523 81.582 28.9883C81.1992 29.3164 80.7539 29.6445 80.2461 29.9727C79.7383 30.293 79.2031 30.625 78.6406 30.9688C78.6953 31.375 78.7891 31.7461 78.9219 32.082C79.0547 32.4102 79.2227 32.6953 79.4258 32.9375C79.6289 33.1719 79.8633 33.3555 80.1289 33.4883C80.3945 33.6133 80.6914 33.6758 81.0195 33.6758ZM81.3828 27.1953C81.3828 26.8828 81.2969 26.6367 81.125 26.457C80.9609 26.2773 80.7578 26.1875 80.5156 26.1875C80.3125 26.1875 80.0977 26.2617 79.8711 26.4102C79.6445 26.5508 79.4375 26.7812 79.25 27.1016C79.0625 27.4141 78.9062 27.8164 78.7812 28.3086C78.6562 28.8008 78.5938 29.3984 78.5938 30.1016V30.3711C78.8594 30.2305 79.1523 30.0469 79.4727 29.8203C79.8008 29.5859 80.1055 29.3281 80.3867 29.0469C80.668 28.7656 80.9023 28.4688 81.0898 28.1562C81.2852 27.8359 81.3828 27.5156 81.3828 27.1953ZM84.6641 31.1562C84.6641 30.3281 84.6953 29.4961 84.7578 28.6602C84.8203 27.8242 84.9023 26.9766 85.0039 26.1172H83.9375L84.0664 25.4023H85.0977C85.207 24.6055 85.3164 23.8086 85.4258 23.0117C85.543 22.207 85.6484 21.4023 85.7422 20.5977H86.9375C86.9219 20.7695 86.8984 21.0195 86.8672 21.3477C86.8438 21.668 86.8125 22.043 86.7734 22.4727C86.7422 22.8945 86.7109 23.3594 86.6797 23.8672C86.6484 24.3672 86.6172 24.8789 86.5859 25.4023H88.8594L88.7422 26.1172H86.5391C86.5078 26.5625 86.4805 27 86.457 27.4297C86.4336 27.8594 86.4102 28.2695 86.3867 28.6602C86.3711 29.043 86.3594 29.3984 86.3516 29.7266C86.3438 30.0469 86.3398 30.3242 86.3398 30.5586C86.3398 31.1523 86.3555 31.6484 86.3867 32.0469C86.4258 32.4453 86.4805 32.7656 86.5508 33.0078C86.6289 33.25 86.7227 33.4219 86.832 33.5234C86.9492 33.625 87.082 33.6758 87.2305 33.6758C87.4258 33.6758 87.6406 33.5781 87.875 33.3828C88.1172 33.1797 88.3672 32.9102 88.625 32.5742C88.8828 32.2383 89.1445 31.8477 89.4102 31.4023C89.6758 30.9492 89.9336 30.4688 90.1836 29.9609L90.3008 29.7148L90.7812 30.0781L90.6641 30.3242C90.3047 31.0508 89.9453 31.7031 89.5859 32.2812C89.2344 32.8594 88.8867 33.3516 88.543 33.7578C88.1992 34.1562 87.8633 34.4648 87.5352 34.6836C87.207 34.8945 86.8906 35 86.5859 35C86.2812 35 86.0078 34.9297 85.7656 34.7891C85.5312 34.6484 85.332 34.4258 85.168 34.1211C85.0039 33.8086 84.8789 33.4102 84.793 32.9258C84.707 32.4414 84.6641 31.8516 84.6641 31.1562ZM92.0938 35C91.7344 35 91.4336 34.8984 91.1914 34.6953C90.957 34.4844 90.7695 34.2031 90.6289 33.8516C90.4883 33.5 90.3867 33.0977 90.3242 32.6445C90.2695 32.1836 90.2422 31.7031 90.2422 31.2031C90.2422 30.4141 90.2734 29.7031 90.3359 29.0703C90.3984 28.4375 90.4727 27.8945 90.5586 27.4414C90.6445 26.9805 90.7305 26.6211 90.8164 26.3633C90.9023 26.0977 90.9648 25.9375 91.0039 25.8828C91.0586 25.8125 91.1289 25.7461 91.2148 25.6836C91.3086 25.6211 91.4023 25.5703 91.4961 25.5312C91.5898 25.4922 91.6836 25.4609 91.7773 25.4375C91.8711 25.4141 91.9492 25.4023 92.0117 25.4023C92.1914 25.4023 92.3164 25.4375 92.3867 25.5078C92.457 25.5781 92.4922 25.7031 92.4922 25.8828C92.4844 25.8828 92.4648 25.9648 92.4336 26.1289C92.4102 26.2852 92.3789 26.5 92.3398 26.7734C92.3008 27.0469 92.2578 27.3672 92.2109 27.7344C92.1641 28.0938 92.1211 28.4766 92.082 28.8828C92.0508 29.2891 92.0234 29.7031 92 30.125C91.9766 30.5391 91.9648 30.9414 91.9648 31.332C91.9648 31.6758 91.9766 31.9961 92 32.293C92.0234 32.5898 92.0625 32.8516 92.1172 33.0781C92.1797 33.3047 92.2539 33.4844 92.3398 33.6172C92.4336 33.7422 92.5508 33.8047 92.6914 33.8047C92.832 33.8047 92.9648 33.7148 93.0898 33.5352C93.2148 33.3477 93.332 33.1094 93.4414 32.8203C93.5508 32.5234 93.6523 32.1953 93.7461 31.8359C93.8398 31.4688 93.9258 31.1016 94.0039 30.7344C94.082 30.3594 94.1523 30.0078 94.2148 29.6797C94.2852 29.3438 94.3438 29.0625 94.3906 28.8359C94.4219 28.7188 94.4805 28.6133 94.5664 28.5195C94.6602 28.418 94.7695 28.332 94.8945 28.2617C95.0195 28.1914 95.1523 28.1367 95.293 28.0977C95.4336 28.0586 95.5664 28.0391 95.6914 28.0391C95.7852 28.0391 95.8477 28.0703 95.8789 28.1328C95.9102 28.1875 95.9258 28.2773 95.9258 28.4023C95.9258 29.1055 95.9688 29.7891 96.0547 30.4531C96.1406 31.1172 96.2617 31.707 96.418 32.2227C96.582 32.7383 96.7734 33.1523 96.9922 33.4648C97.2109 33.7695 97.457 33.9219 97.7305 33.9219C97.918 33.9219 98.0938 33.8516 98.2578 33.7109C98.4219 33.5625 98.5664 33.3828 98.6914 33.1719C98.8242 32.9531 98.9297 32.7227 99.0078 32.4805C99.0938 32.2383 99.1484 32.0234 99.1719 31.8359C98.8594 31.7031 98.5664 31.4922 98.293 31.2031C98.0195 30.9062 97.7773 30.5625 97.5664 30.1719C97.3633 29.7734 97.2031 29.3438 97.0859 28.8828C96.9688 28.4219 96.9102 27.957 96.9102 27.4883C96.9102 27.2305 96.9375 26.9766 96.9922 26.7266C97.0469 26.4766 97.1289 26.2539 97.2383 26.0586C97.3555 25.8633 97.5 25.707 97.6719 25.5898C97.8438 25.4648 98.0469 25.4023 98.2812 25.4023C98.5938 25.4023 98.8633 25.5 99.0898 25.6953C99.3242 25.8906 99.5156 26.1562 99.6641 26.4922C99.8203 26.8203 99.9375 27.2031 100.016 27.6406C100.094 28.0781 100.133 28.5391 100.133 29.0234C100.133 29.3828 100.109 29.7812 100.062 30.2188C100.016 30.6562 99.957 31.0586 99.8867 31.4258H100.109C100.5 31.4258 100.836 31.2852 101.117 31.0039C101.406 30.7227 101.652 30.375 101.855 29.9609L101.973 29.7148L102.453 30.0781L102.336 30.3242C102.086 30.8164 101.762 31.2188 101.363 31.5312C100.965 31.8438 100.488 32 99.9336 32H99.7695C99.6523 32.4219 99.5117 32.8164 99.3477 33.1836C99.1836 33.543 98.9922 33.8594 98.7734 34.1328C98.5625 34.3984 98.3281 34.6094 98.0703 34.7656C97.8125 34.9219 97.5391 35 97.25 35C96.9141 35 96.6172 34.9336 96.3594 34.8008C96.1094 34.668 95.8906 34.4922 95.7031 34.2734C95.5156 34.0469 95.3555 33.7969 95.2227 33.5234C95.0977 33.2422 94.9922 32.957 94.9062 32.668C94.8281 32.3711 94.7656 32.0859 94.7188 31.8125C94.6719 31.5312 94.6367 31.2812 94.6133 31.0625C94.5508 31.3203 94.4844 31.5977 94.4141 31.8945C94.3438 32.1836 94.2617 32.4766 94.168 32.7734C94.0742 33.0625 93.9648 33.3438 93.8398 33.6172C93.7148 33.8828 93.5664 34.1172 93.3945 34.3203C93.2305 34.5234 93.0391 34.6875 92.8203 34.8125C92.6094 34.9375 92.3672 35 92.0938 35ZM97.5898 27.5117C97.5898 27.8711 97.6289 28.2422 97.707 28.625C97.7852 29 97.8984 29.3555 98.0469 29.6914C98.1953 30.0273 98.3711 30.3281 98.5742 30.5938C98.7852 30.8594 99.0156 31.0625 99.2656 31.2031C99.2734 31.1094 99.2812 31 99.2891 30.875C99.3047 30.75 99.3125 30.6211 99.3125 30.4883C99.3203 30.3477 99.3242 30.2148 99.3242 30.0898C99.332 29.957 99.3359 29.8398 99.3359 29.7383C99.3359 29.3008 99.3086 28.8789 99.2539 28.4727C99.1992 28.0586 99.1211 27.6914 99.0195 27.3711C98.918 27.0508 98.7969 26.7969 98.6562 26.6094C98.5156 26.4141 98.3594 26.3164 98.1875 26.3164C98.0703 26.3164 97.9727 26.3555 97.8945 26.4336C97.8164 26.5039 97.7539 26.5977 97.707 26.7148C97.6602 26.832 97.6289 26.9609 97.6133 27.1016C97.5977 27.2422 97.5898 27.3789 97.5898 27.5117ZM111.805 30.0781L111.676 30.3242C111.41 30.8555 111.055 31.2812 110.609 31.6016C110.172 31.9141 109.695 32.1172 109.18 32.2109C109.039 32.6094 108.855 32.9805 108.629 33.3242C108.41 33.6602 108.156 33.9531 107.867 34.2031C107.586 34.4531 107.266 34.6484 106.906 34.7891C106.555 34.9297 106.172 35 105.758 35C105.156 35 104.613 34.875 104.129 34.625C103.652 34.3672 103.246 34.0234 102.91 33.5938C102.574 33.1562 102.316 32.6484 102.137 32.0703C101.957 31.4844 101.867 30.8594 101.867 30.1953C101.867 29.6172 101.934 29.0938 102.066 28.625C102.199 28.1484 102.367 27.7266 102.57 27.3594C102.773 26.9844 103 26.6602 103.25 26.3867C103.5 26.1055 103.746 25.875 103.988 25.6953C104.23 25.5156 104.449 25.3828 104.645 25.2969C104.848 25.2031 105 25.1562 105.102 25.1562L105.254 25.5664C104.934 25.8008 104.648 26.1289 104.398 26.5508C104.18 26.9102 103.98 27.3867 103.801 27.9805C103.629 28.5742 103.543 29.3125 103.543 30.1953C103.543 30.7344 103.594 31.2578 103.695 31.7656C103.797 32.2734 103.945 32.7227 104.141 33.1133C104.336 33.5039 104.574 33.8164 104.855 34.0508C105.145 34.2852 105.469 34.4023 105.828 34.4023C106.32 34.4023 106.727 34.207 107.047 33.8164C107.375 33.418 107.617 32.875 107.773 32.1875C107.367 32.1016 106.98 31.9414 106.613 31.707C106.246 31.4727 105.922 31.1836 105.641 30.8398C105.359 30.4883 105.133 30.0859 104.961 29.6328C104.797 29.1797 104.715 28.6875 104.715 28.1562C104.715 27.7188 104.77 27.3359 104.879 27.0078C104.996 26.6719 105.148 26.3945 105.336 26.1758C105.523 25.9492 105.738 25.7812 105.98 25.6719C106.23 25.5547 106.492 25.4961 106.766 25.4961C107.086 25.4961 107.414 25.5898 107.75 25.7773C108.086 25.957 108.391 26.2305 108.664 26.5977C108.938 26.957 109.16 27.4102 109.332 27.957C109.504 28.5039 109.59 29.1406 109.59 29.8672C109.59 30.1406 109.574 30.4102 109.543 30.6758C109.512 30.9414 109.465 31.1992 109.402 31.4492C109.777 31.3398 110.117 31.1641 110.422 30.9219C110.734 30.6797 110.992 30.3594 111.195 29.9609L111.324 29.7148L111.805 30.0781ZM105.488 28.0625C105.488 28.5234 105.551 28.9492 105.676 29.3398C105.809 29.7227 105.984 30.0625 106.203 30.3594C106.422 30.6484 106.676 30.8906 106.965 31.0859C107.254 31.2812 107.562 31.418 107.891 31.4961C107.93 31.2773 107.953 31.0508 107.961 30.8164C107.977 30.5742 107.984 30.3281 107.984 30.0781C107.984 29.5234 107.941 29.0234 107.855 28.5781C107.77 28.125 107.656 27.7422 107.516 27.4297C107.375 27.1094 107.211 26.8633 107.023 26.6914C106.836 26.5195 106.645 26.4336 106.449 26.4336C106.184 26.4336 105.957 26.5781 105.77 26.8672C105.582 27.1484 105.488 27.5469 105.488 28.0625ZM111.219 29.9609L111.336 29.7148C111.453 29.4805 111.559 29.2383 111.652 28.9883C111.754 28.7383 111.84 28.5039 111.91 28.2852C111.98 28.0586 112.035 27.8594 112.074 27.6875C112.113 27.5078 112.141 27.3711 112.156 27.2773C111.953 27.2539 111.758 27.2031 111.57 27.125C111.383 27.0469 111.219 26.9414 111.078 26.8086C110.938 26.6758 110.828 26.5195 110.75 26.3398C110.664 26.1602 110.621 25.957 110.621 25.7305C110.621 25.5508 110.652 25.3906 110.715 25.25C110.777 25.1094 110.863 24.9922 110.973 24.8984C111.074 24.8047 111.191 24.7344 111.324 24.6875C111.449 24.6328 111.582 24.6055 111.723 24.6055C111.91 24.6055 112.074 24.6445 112.215 24.7227C112.355 24.8008 112.473 24.9062 112.566 25.0391C112.66 25.1641 112.73 25.3125 112.777 25.4844C112.824 25.6484 112.848 25.8203 112.848 26C113.066 26 113.301 25.9688 113.551 25.9062C113.809 25.8438 114.066 25.7773 114.324 25.707C114.582 25.6289 114.836 25.5586 115.086 25.4961C115.336 25.4336 115.566 25.4023 115.777 25.4023C115.957 25.4023 116.102 25.4414 116.211 25.5195C116.32 25.5898 116.375 25.7109 116.375 25.8828C116.375 26.0078 116.336 26.2148 116.258 26.5039C116.188 26.793 116.098 27.1289 115.988 27.5117C115.879 27.8945 115.758 28.3125 115.625 28.7656C115.5 29.2109 115.383 29.6641 115.273 30.125C115.164 30.5781 115.07 31.0195 114.992 31.4492C114.922 31.8789 114.887 32.2617 114.887 32.5977C114.887 33.0195 114.934 33.3047 115.027 33.4531C115.121 33.6016 115.289 33.6758 115.531 33.6758C115.633 33.6758 115.758 33.6328 115.906 33.5469C116.062 33.4531 116.25 33.2773 116.469 33.0195C116.688 32.7539 116.945 32.3789 117.242 31.8945C117.547 31.4023 117.898 30.7578 118.297 29.9609L118.414 29.7148L118.895 30.0781L118.777 30.3242C118.309 31.2617 117.891 32.0312 117.523 32.6328C117.156 33.2344 116.816 33.7109 116.504 34.0625C116.199 34.4141 115.91 34.6602 115.637 34.8008C115.363 34.9336 115.09 35 114.816 35C114.355 35 113.98 34.8242 113.691 34.4727C113.402 34.1211 113.258 33.5781 113.258 32.8438C113.258 32.4453 113.312 32.0312 113.422 31.6016C113.531 31.1719 113.668 30.7461 113.832 30.3242C113.996 29.8945 114.18 29.4727 114.383 29.0586C114.586 28.6445 114.777 28.2539 114.957 27.8867C115.145 27.5117 115.312 27.1641 115.461 26.8438C115.609 26.5234 115.715 26.2422 115.777 26L115.707 25.9297C115.582 25.9297 115.414 25.9961 115.203 26.1289C114.992 26.2617 114.754 26.4141 114.488 26.5859C114.23 26.75 113.953 26.9062 113.656 27.0547C113.359 27.2031 113.059 27.293 112.754 27.3242C112.738 27.4336 112.703 27.5938 112.648 27.8047C112.602 28.0156 112.535 28.25 112.449 28.5078C112.363 28.7656 112.266 29.0312 112.156 29.3047C112.047 29.5781 111.934 29.8359 111.816 30.0781L111.699 30.3242L111.219 29.9609ZM111.793 25.2617C111.723 25.2617 111.664 25.2852 111.617 25.332C111.57 25.3789 111.547 25.4336 111.547 25.4961C111.547 25.5898 111.57 25.6719 111.617 25.7422C111.664 25.8047 111.723 25.8594 111.793 25.9062C111.863 25.9453 111.934 25.9766 112.004 26C112.082 26.0156 112.148 26.0234 112.203 26.0234C112.203 25.8047 112.168 25.625 112.098 25.4844C112.027 25.3359 111.926 25.2617 111.793 25.2617ZM128.328 30.0781L128.211 30.3242C127.883 30.9805 127.57 31.5938 127.273 32.1641C126.977 32.7344 126.68 33.2305 126.383 33.6523C126.086 34.0742 125.781 34.4062 125.469 34.6484C125.164 34.8828 124.836 35 124.484 35C124.133 35 123.789 34.9062 123.453 34.7188C123.117 34.5312 122.781 34.2695 122.445 33.9336C122.117 33.5977 121.785 33.207 121.449 32.7617C121.121 32.3086 120.781 31.8164 120.43 31.2852L120.02 31.3555C120.004 32.043 119.98 32.6641 119.949 33.2188C119.918 33.7656 119.879 34.2148 119.832 34.5664C119.809 34.7227 119.742 34.8359 119.633 34.9062C119.531 34.9688 119.391 35 119.211 35C119 35 118.824 34.9727 118.684 34.918C118.543 34.8633 118.434 34.7969 118.355 34.7188C118.27 34.6328 118.211 34.543 118.18 34.4492C118.141 34.3477 118.121 34.25 118.121 34.1562C118.121 33.6562 118.203 33.0352 118.367 32.293V26.2344C118.367 24.7344 118.445 23.4375 118.602 22.3438C118.758 21.2422 118.969 20.332 119.234 19.6133C119.5 18.8867 119.809 18.3516 120.16 18.0078C120.52 17.6562 120.898 17.4805 121.297 17.4805C121.727 17.4805 122.031 17.6211 122.211 17.9023C122.398 18.1758 122.492 18.5547 122.492 19.0391C122.492 19.4609 122.43 20.0039 122.305 20.668C122.18 21.3242 122.004 22.0469 121.777 22.8359C121.559 23.625 121.301 24.4492 121.004 25.3086C120.707 26.1602 120.387 26.9922 120.043 27.8047V28.0625C120.262 27.7109 120.516 27.375 120.805 27.0547C121.102 26.7344 121.418 26.4531 121.754 26.2109C122.09 25.9609 122.434 25.7656 122.785 25.625C123.145 25.4766 123.496 25.4023 123.84 25.4023C124.145 25.4023 124.422 25.4453 124.672 25.5312C124.93 25.6172 125.152 25.7422 125.34 25.9062C125.527 26.0703 125.672 26.2773 125.773 26.5273C125.875 26.7695 125.926 27.0508 125.926 27.3711C125.926 27.6992 125.852 28.0273 125.703 28.3555C125.562 28.6836 125.336 29 125.023 29.3047C124.719 29.6094 124.324 29.8984 123.84 30.1719C123.355 30.4375 122.77 30.6719 122.082 30.875C122.129 30.9453 122.207 31.0625 122.316 31.2266C122.426 31.3906 122.555 31.5781 122.703 31.7891C122.859 31.9922 123.027 32.207 123.207 32.4336C123.387 32.6523 123.57 32.8555 123.758 33.043C123.953 33.2227 124.145 33.375 124.332 33.5C124.52 33.6172 124.691 33.6758 124.848 33.6758C125.059 33.6758 125.273 33.5898 125.492 33.418C125.711 33.2383 125.938 32.9883 126.172 32.668C126.414 32.3398 126.664 31.9492 126.922 31.4961C127.18 31.0352 127.449 30.5234 127.73 29.9609L127.848 29.7148L128.328 30.0781ZM120.043 29.0703C120.043 29.25 120.039 29.4102 120.031 29.5508C120.031 29.6836 120.031 29.8164 120.031 29.9492C120.031 30.0742 120.027 30.2031 120.02 30.3359C120.02 30.4688 120.02 30.6172 120.02 30.7812C120.816 30.6641 121.488 30.5078 122.035 30.3125C122.59 30.1172 123.039 29.8906 123.383 29.6328C123.727 29.375 123.977 29.0938 124.133 28.7891C124.289 28.4766 124.367 28.1484 124.367 27.8047C124.367 27.625 124.336 27.4531 124.273 27.2891C124.219 27.1172 124.137 26.9688 124.027 26.8438C123.918 26.7109 123.781 26.6055 123.617 26.5273C123.461 26.4492 123.285 26.4102 123.09 26.4102C122.816 26.4102 122.539 26.4844 122.258 26.6328C121.984 26.7734 121.711 26.9648 121.438 27.207C121.172 27.4492 120.918 27.7344 120.676 28.0625C120.441 28.3828 120.23 28.7188 120.043 29.0703ZM121.074 18.0781C120.91 18.0781 120.766 18.2383 120.641 18.5586C120.523 18.8789 120.422 19.3789 120.336 20.0586C120.25 20.7305 120.18 21.5898 120.125 22.6367C120.07 23.6758 120.027 24.918 119.996 26.3633C120.324 25.4961 120.59 24.6836 120.793 23.9258C120.996 23.1602 121.152 22.4727 121.262 21.8633C121.379 21.2461 121.457 20.7109 121.496 20.2578C121.535 19.7969 121.555 19.4297 121.555 19.1562C121.555 18.7422 121.516 18.4609 121.438 18.3125C121.367 18.1562 121.246 18.0781 121.074 18.0781Z" fill="#DB353A"/>
</svg>
